<svg data-name="Adobe Folder 2020" viewBox="0 0 240 210" xmlns="http://www.w3.org/2000/svg"><path d="M232.5 52.5a15 15 0 00-15-15H7.5v150a15 15 0 0015 15h195a15 15 0 0015-15z" fill="#2e001f"/><path d="M103.76 118.53l19.6 37.66c.35.56.14 1.12-.42 1.12h-12.18a1.37 1.37 0 01-1.47-.91c-4.48-9.24-9-18.48-13.72-28.42h-.14c-4.2 9.38-8.82 19.25-13.3 28.49a1.34 1.34 0 01-1.26.77H69.32c-.7 0-.77-.56-.42-1l19.18-36.54-18.55-37a.57.57 0 01.42-1H82a1.1 1.1 0 011.26.77c4.41 9.24 8.89 18.76 13.09 28.07h.14c4.06-9.24 8.54-18.83 12.88-28 .35-.56.56-.91 1.26-.91h11.27c.56 0 .77.42.42 1zm23.03 11.41c0-16.31 10.85-29 28.07-29a31 31 0 013.64.14v-18.6a.7.7 0 01.7-.7h11.06c.56 0 .7.21.7.56v64.26a49.86 49.86 0 00.35 6.86c0 .42-.14.56-.56.77a41.7 41.7 0 01-17.92 4.06c-15.19.07-26.04-9.29-26.04-28.35zM158.5 112a10.59 10.59 0 00-4.06-.7c-8.82 0-15 6.79-15 18.06 0 12.88 6.3 18.06 14.21 18.06a13.21 13.21 0 004.83-.77z" fill="#ffd9f2"/><path d="M217.5 30h-79.87a3.41 3.41 0 01-2.63-1.12L111.75 5.63A18.2 18.2 0 0098.63 0H22.5A22.57 22.57 0 000 22.5v165A22.57 22.57 0 0022.5 210h195a22.57 22.57 0 0022.5-22.5v-135A22.57 22.57 0 00217.5 30zm15 157.5a15 15 0 01-15 15h-195a15 15 0 01-15-15v-150h210a15 15 0 0115 15z" data-name="Path 4" fill="#ff26be"/></svg>