<svg xmlns="http://www.w3.org/2000/svg" width="80" height="72"><defs><style>.a{fill:#c44d4d}</style></defs><path class="a" d="M34.288 60.37s3.532-.775 3.532-12.457-4.279-12.764-4.279-12.764h-7.709v36.853h3.875v-8.89l3.35 8.89h5.732zm-1.493-7.546h-3.088v-8.425h3.108s.868.827.868 4.187-.888 4.238-.888 4.238zm14.591-17.419h-3.932c-2.805 0-3.754 6.513-3.754 9.614V72h3.935v-6.461h3.693V72h3.814V45.019c-.002-7.856-2.788-9.614-3.756-9.614zm-.061 19.693h-3.713v-8.942s0-2.016 1.231-2.016h1.352c1.09 0 1.11 2.016 1.11 2.016v8.942zm5.61-19.693h4.1v36.594h-4.1zm9.849 27.136V35.405h-4.077v36.594h9.586V62.54zm6.862.1v9.355h6.6c1.352 0 3.673-2.533 3.754-9.614v-3.618c0-6.047-1.937-9.614-3.754-9.614h-3.292v-4.338h6.519v-9.407h-6.256c-1.615 0-3.774 3.411-3.774 9.769v3.256c0 6.357 2.139 9.614 3.774 9.614 4.541.052-1.09 0 3.108 0v4.548z"/><path class="a" d="M1.413 71.948h15.943S14.309 36.336 24.4 21.915c2.2-2.739 9.2-12.973 20.666 8.735.363-.775.706-1.4.706-1.4S35.277 2.429 23.592 5.427c-5.873 1.344-13.1 15.041-17.336 33.131a197.765 197.765 0 00-4.843 33.39zM34.632 8.322l.081-3.463a8.478 8.478 0 00-1.958-1.809l-.081 3.411a27.29 27.29 0 011.958 1.861zm-1.918 10.957l-.081 3.256a4.976 4.976 0 012 .62l.081-3.2a6.414 6.414 0 00-2-.676zM25.247 3.153h.2L25.045 0a6.521 6.521 0 00-1.937.31l.383 3.05a6.794 6.794 0 011.756-.207zm.969 19.021l.464 3.566a11.768 11.768 0 011.756-1.809l-.444-3.411a12.167 12.167 0 00-1.776 1.654zM17.053 8.58l-.908-3.566c-.5.672-1.029 1.4-1.574 2.223l.928 3.618c.525-.828 1.03-1.603 1.554-2.275zm4.137 23.259l.969 3.721a38.829 38.829 0 011.191-3.67l-.908-3.515a34.775 34.775 0 00-1.251 3.464zm-2.926 16.643L19.9 51.79q.121-3.024.424-6.047L18.87 42.8c-.263 1.909-.444 3.822-.606 5.682zM9.425 23.931l-1.433-3.2A98.48 98.48 0 006.5 24.6l1.554 3.411a67.443 67.443 0 011.371-4.08zM3.33 47.035l-2.321-2.171C.626 47.087.2 49.671 0 51.067l2.321 2.171c.262-1.758.686-4.29 1.009-6.203zm14.632 14.576c.04 2.739.141 4.962.242 6.513l2.422 2.223c-.182-2.016-.363-4.29-.484-6.719z"/></svg>