<svg xmlns="http://www.w3.org/2000/svg" width="80" height="80"><path d="M65.776 25.929q-1.245-.482-2.575-.912.218-1 .4-1.974c1.949-10.636.675-19.2-3.678-22.025-4.173-2.705-11 .115-17.892 6.858q-.994.973-1.992 2.054-.664-.714-1.326-1.376C31.487 1.345 24.246-1.694 19.9 1.136c-4.169 2.713-5.4 10.768-3.649 20.847q.254 1.46.592 2.979a49.416 49.416 0 00-2.961 1.046C5.409 29.327 0 34.529 0 39.924 0 45.5 5.807 51.086 14.629 54.475q1.044.4 2.163.76-.362 1.64-.628 3.21c-1.673 9.9-.367 17.769 3.792 20.465 4.3 2.784 11.5-.078 18.523-6.974q.832-.818 1.669-1.729 1.084 1.174 2.163 2.218c6.8 6.576 13.514 9.231 17.669 6.528 4.291-2.792 5.685-11.24 3.875-21.52q-.207-1.178-.48-2.4.759-.252 1.488-.522C74.033 51.092 80 45.571 80 39.924c0-5.415-5.584-10.652-14.224-13.995zm-1.989 24.933q-.656.244-1.344.473a96.933 96.933 0 00-4.051-11.391 97.093 97.093 0 003.893-11.225q1.228.4 2.378.843c7.4 2.864 11.919 7.1 11.919 10.363 0 3.476-4.877 7.988-12.8 10.937zM60.5 58.179a36.483 36.483 0 01.385 11.867c-.476 2.887-1.435 4.811-2.619 5.582-2.521 1.64-7.913-.492-13.727-6.116q-1-.967-2.012-2.062a89.5 89.5 0 006.706-9.57A71.651 71.651 0 0060.068 56q.245 1.11.433 2.175zM27.274 75.345c-2.463.978-4.425 1.006-5.611.237-2.523-1.636-3.573-7.95-2.142-16.421q.246-1.455.584-2.985a72.116 72.116 0 0010.781 1.754 92.341 92.341 0 006.867 9.536q-.766.831-1.524 1.578a28.639 28.639 0 01-8.955 6.3zm-11.54-24.5A28.1 28.1 0 016.4 45.269c-1.984-1.91-2.986-3.806-2.986-5.345 0-3.274 4.343-7.45 11.586-10.289.879-.344 1.8-.669 2.754-.974a99.315 99.315 0 003.9 11.356 100.954 100.954 0 00-3.948 11.518q-1.021-.33-1.975-.695zm3.866-29.6c-1.5-8.635-.5-15.15 2.01-16.785 2.676-1.742 8.595.742 14.832 6.967.4.4.8.814 1.2 1.245a90.893 90.893 0 00-6.815 9.479 75.032 75.032 0 00-10.675 1.865q-.312-1.412-.55-2.77zm34.508 9.577q-1.187-2.305-2.433-4.5a67.86 67.86 0 017.295 1.433 88.834 88.834 0 01-2.56 7.743q-1.088-2.323-2.3-4.679zm-14.07-15.405a80.901 80.901 0 014.708 6.388Q42.4 21.68 40 21.679q-2.373 0-4.709.124a83.764 83.764 0 014.748-6.385zM25.876 30.849q-1.186 2.312-2.258 4.65a89.941 89.941 0 01-2.542-7.78 69.322 69.322 0 017.253-1.4q-1.26 2.209-2.452 4.53zM28.4 53.8a65.38 65.38 0 01-7.373-1.332 93.588 93.588 0 012.593-7.938q1.074 2.332 2.268 4.652Q27.1 51.546 28.4 53.8zm11.733 10.9a84.648 84.648 0 01-4.813-6.474q2.3.1 4.681.1 2.446 0 4.829-.121c-1.558 2.379-3.131 4.556-4.7 6.493zm16.312-20.305a87.825 87.825 0 012.686 7.91 65.338 65.338 0 01-7.463 1.43q1.246-2.219 2.456-4.575 1.222-2.382 2.32-4.764zm-5.281 2.845a130.9 130.9 0 01-3.838 6.96c-2.374.191-4.826.289-7.326.289s-4.911-.087-7.243-.257a112.945 112.945 0 01-7.323-14.216 116.013 116.013 0 013.4-7.249 110.719 110.719 0 013.879-6.941 87.12 87.12 0 017.285-.308c2.477 0 4.92.106 7.3.31a118.934 118.934 0 013.855 6.918 131.967 131.967 0 013.449 7.214 121.11 121.11 0 01-3.438 7.278zm7.05-42.894c2.679 1.736 3.721 8.739 2.038 17.922q-.161.879-.36 1.788a73.565 73.565 0 00-10.7-1.9 89.248 89.248 0 00-6.763-9.486q.922-1 1.84-1.9C50.179 5 55.7 2.716 58.214 4.346zM40 31.9c3.945 0 7.144 3.595 7.144 8.029s-3.2 8.029-7.144 8.029-7.144-3.595-7.144-8.029S36.055 31.9 40 31.9z" fill="#5dd7e2"/></svg>