<?xml version="1.0" ?><svg data-name="Adobe Folder 2020" id="Adobe_Folder_2020" viewBox="0 0 240 210" xmlns="http://www.w3.org/2000/svg"><defs><style>.cls-1{fill:#2e001f;}.cls-2{fill:#ffd9f2;}.cls-3{fill:#ff26be;}</style></defs><title/><g id="XD"><path class="cls-1" d="M232.5,52.5a15,15,0,0,0-15-15H7.5v150a15,15,0,0,0,15,15h195a15,15,0,0,0,15-15Z"/><path class="cls-2" d="M103.76,118.53l19.6,37.66c.35.56.14,1.12-.42,1.12H110.76a1.37,1.37,0,0,1-1.47-.91c-4.48-9.24-9-18.48-13.72-28.42h-.14c-4.2,9.38-8.82,19.25-13.3,28.49a1.34,1.34,0,0,1-1.26.77H69.32c-.7,0-.77-.56-.42-1l19.18-36.54-18.55-37a.57.57,0,0,1,.42-1H82a1.1,1.1,0,0,1,1.26.77c4.41,9.24,8.89,18.76,13.09,28.07h.14c4.06-9.24,8.54-18.83,12.88-28,.35-.56.56-.91,1.26-.91h11.27c.56,0,.77.42.42,1Z"/><path class="cls-2" d="M126.79,129.94c0-16.31,10.85-29,28.07-29a31,31,0,0,1,3.64.14V82.48a.7.7,0,0,1,.7-.7h11.06c.56,0,.7.21.7.56V146.6a49.86,49.86,0,0,0,.35,6.86c0,.42-.14.56-.56.77a41.7,41.7,0,0,1-17.92,4.06C137.64,158.36,126.79,149,126.79,129.94ZM158.5,112a10.59,10.59,0,0,0-4.06-.7c-8.82,0-15,6.79-15,18.06,0,12.88,6.3,18.06,14.21,18.06a13.21,13.21,0,0,0,4.83-.77Z"/><path class="cls-3" d="M217.5,30H137.63A3.41,3.41,0,0,1,135,28.88L111.75,5.63A18.2,18.2,0,0,0,98.63,0H22.5A22.57,22.57,0,0,0,0,22.5v165A22.57,22.57,0,0,0,22.5,210h195A22.57,22.57,0,0,0,240,187.5V52.5A22.57,22.57,0,0,0,217.5,30Zm15,157.5a15,15,0,0,1-15,15H22.5a15,15,0,0,1-15-15V37.5h210a15,15,0,0,1,15,15Z" data-name="Path 4" id="Path_4"/></g></svg>