<svg xmlns="http://www.w3.org/2000/svg" width="80" height="80" viewBox="0 0 80 80"><defs><style>.a{fill:#c966ae;}</style></defs><g transform="translate(-0.454 -0.454)"><path class="a" d="M69.34,46.443a13.3,13.3,0,0,0-7.248,2.241,24.433,24.433,0,0,1-1.622-5.008,17.855,17.855,0,0,1-.146-4.209c.175-1.793.964-4.345.95-4.54s-.175-1.111-1.783-1.13-3,.409-3.156.974a29.789,29.789,0,0,0-.672,3.176c-.278,1.948-3.215,8.9-4.9,12.548a16.421,16.421,0,0,1-1.111-3.663,17.855,17.855,0,0,1-.146-4.209c.175-1.793.964-4.345.95-4.54s-.175-1.111-1.783-1.13-3,.409-3.156.974-.336,1.89-.672,3.176S40.613,54,39.59,57c-.526,1.539-.979,2.767-1.3,3.6h0a1.041,1.041,0,0,1-.058.156c-.278.721-.438,1.111-.438,1.111v.019c-.219.526-.453,1.013-.57,1.013a8.624,8.624,0,0,1,.029-3.312c.584-4.033,1.973-10.307,1.958-10.522A1.581,1.581,0,0,0,38.3,47.3a1.228,1.228,0,0,0-1.651.37c-.1,0-.175.331-.175.331s1.271-7.053-2.426-7.053c-2.309,0-5.494,3.371-7.072,6.41-.994.721-3.112,2.26-5.377,3.916-.862.643-1.753,1.286-2.586,1.89-.058-.078-.117-.175-.175-.253C14.369,46.54,6.1,42.039,6.449,33.486c.132-3.118.935-11.3,15.884-21.238,12.3-8.086,22.094-5.845,23.789-.877,2.426,7.092-5.246,20.264-17.959,22.174-4.851.721-7.394-1.773-8.037-2.708-.672-.974-.774-1.033-1.023-.838-.409.292-.146,1.169,0,1.676a8.5,8.5,0,0,0,4.588,4.813c2.338,1.013,8.022,1.578,14.9-1.968C46.3,30.543,52.317,19.5,50.549,10.24,48.781.849,37.091-2.249,26.029,2.992A54.532,54.532,0,0,0,7.194,17.411C1.1,25.01.136,31.615.531,34.382,1.948,44.2,12.1,50.593,16.166,55.328c-.2.156-.395.292-.555.409-2.031,1.344-9.776,6.742-11.7,12.451-2.192,6.469.351,11.106,2.031,11.73,5.217,1.929,10.579-1.539,13.458-7.268s2.528-13.172,1.2-16.581a.438.438,0,0,0-.058-.117c.526-.409,1.067-.838,1.593-1.247,1.037-.818,2.06-1.578,2.937-2.2A33.3,33.3,0,0,0,24.028,59.6c-.219,3.663.906,8.417,2.382,10.288a2.222,2.222,0,0,0,1.929.838c1.724,0,2.5-1.909,3.361-4.17,1.052-2.767,2-5.982,2-5.982s-1.184,8.69,2.031,8.69c1.169,0,2.353-2.026,2.879-3.059v.019s.029-.058.088-.195c.117-.253.19-.409.19-.409v-.039c.468-1.091,1.52-3.566,3.083-7.677,2.016-5.3,3.96-11.925,3.96-11.925a43.665,43.665,0,0,0,.774,4.306,48.3,48.3,0,0,0,1.666,4.988c-.468.877-.76,1.364-.76,1.364l.015.019c-.38.662-.789,1.383-1.242,2.085a62.811,62.811,0,0,0-3.755,6.274,2.077,2.077,0,0,0,.351,2.3,2.517,2.517,0,0,0,1.958.429,7.214,7.214,0,0,0,2.937-.9A9.329,9.329,0,0,0,50.4,65.07a8.6,8.6,0,0,0,2.426-6.644,17.086,17.086,0,0,0-.921-4.7c.146-.273.278-.546.424-.818a100.427,100.427,0,0,0,4.384-10.093,43.665,43.665,0,0,0,.774,4.306,34.42,34.42,0,0,0,1.417,4.287,18.98,18.98,0,0,0-4.267,7.346c-.921,3.546-.2,5.144,1.154,5.514a3.233,3.233,0,0,0,2.133-.585,9.12,9.12,0,0,0,2.7-1.851,8.79,8.79,0,0,0,2.981-6.586,16.015,16.015,0,0,0-.672-3.9A11.821,11.821,0,0,1,70.7,50.164c6.955,1.091,8.329,6.878,8.066,9.314a6.276,6.276,0,0,1-2.206,4.17c-.482.409-.643.546-.6.838.058.429.292.409.7.331.57-.136,3.653-1.968,3.785-6.449.219-5.728-3.872-11.983-11.105-11.925ZM15.684,70.565c-2.309,3.351-5.523,4.618-6.912,3.546-1.49-1.15-.906-6.1,1.929-9.645a39.834,39.834,0,0,1,5.421-5.4c.336-.273.833-.662,1.432-1.15.1-.078.161-.117.161-.117h0l.351-.292a16.591,16.591,0,0,1-2.382,13.055Zm16.8-15.237c-.8,2.611-2.484,9.294-3.507,8.924-.877-.312-1.417-5.378-.175-10.385a26.694,26.694,0,0,1,2.733-6.683c1.257-1.871,2.645-2.494,2.981-1.734.424.994-1.534,8.242-2.031,9.879Zm13.867,8.846c-.336.234-.658.39-.8.273-.1-.078.146-.39.146-.39s1.739-2.494,2.426-3.624c.395-.662.862-1.442,1.359-2.319v.253c0,2.981-2.163,4.988-3.127,5.806Zm10.7-3.254c-.248-.234-.2-1.013.628-3.449a13.305,13.305,0,0,1,2.382-4.092,7.2,7.2,0,0,1,.234,1.793c-.015,3.761-2.031,5.163-3.244,5.748Z" transform="translate(0 0)"/></g></svg>