<svg xmlns="http://www.w3.org/2000/svg" width="80" height="80" viewBox="0 0 80 80"><defs><style>.a{fill:#5dd7e2;}</style></defs><path class="a" d="M65.776,25.929q-1.245-.482-2.575-.912.218-1,.4-1.974c1.949-10.636.675-19.2-3.678-22.025-4.173-2.705-11,.115-17.892,6.858q-.994.973-1.992,2.054-.664-.714-1.326-1.376C31.487,1.345,24.246-1.694,19.9,1.136c-4.169,2.713-5.4,10.768-3.649,20.847q.254,1.46.592,2.979c-1.025.327-2.014.676-2.961,1.046C5.409,29.327,0,34.529,0,39.924,0,45.5,5.807,51.086,14.629,54.475q1.044.4,2.163.76-.362,1.64-.628,3.21c-1.673,9.9-.367,17.769,3.792,20.465,4.3,2.784,11.5-.078,18.523-6.974q.832-.818,1.669-1.729,1.084,1.174,2.163,2.218c6.8,6.576,13.514,9.231,17.669,6.528,4.291-2.792,5.685-11.24,3.875-21.52q-.207-1.178-.48-2.4.759-.252,1.488-.522C74.033,51.092,80,45.571,80,39.924c0-5.415-5.584-10.652-14.224-13.995ZM63.787,50.862q-.656.244-1.344.473a96.933,96.933,0,0,0-4.051-11.391,97.093,97.093,0,0,0,3.893-11.225q1.228.4,2.378.843c7.4,2.864,11.919,7.1,11.919,10.363,0,3.476-4.877,7.988-12.8,10.937ZM60.5,58.179a36.483,36.483,0,0,1,.385,11.867c-.476,2.887-1.435,4.811-2.619,5.582-2.521,1.64-7.913-.492-13.727-6.116q-1-.967-2.012-2.062a89.5,89.5,0,0,0,6.706-9.57A71.651,71.651,0,0,0,60.068,56q.245,1.11.433,2.175ZM27.274,75.345c-2.463.978-4.425,1.006-5.611.237-2.523-1.636-3.573-7.95-2.142-16.421q.246-1.455.584-2.985A72.116,72.116,0,0,0,30.886,57.93a92.341,92.341,0,0,0,6.867,9.536q-.766.831-1.524,1.578a28.639,28.639,0,0,1-8.955,6.3Zm-11.54-24.5A28.1,28.1,0,0,1,6.4,45.269c-1.984-1.91-2.986-3.806-2.986-5.345,0-3.274,4.343-7.45,11.586-10.289.879-.344,1.8-.669,2.754-.974a99.315,99.315,0,0,0,3.9,11.356,100.954,100.954,0,0,0-3.948,11.518q-1.021-.33-1.975-.695ZM19.6,21.245C18.1,12.61,19.1,6.095,21.61,4.46c2.676-1.742,8.595.742,14.832,6.967.4.4.8.814,1.2,1.245a90.893,90.893,0,0,0-6.815,9.479,75.032,75.032,0,0,0-10.675,1.865q-.312-1.412-.55-2.77Zm34.508,9.577q-1.187-2.305-2.433-4.5a67.86,67.86,0,0,1,7.295,1.433c-.689,2.484-1.549,5.08-2.56,7.743q-1.088-2.323-2.3-4.679ZM40.038,15.417c1.576,1.919,3.155,4.063,4.708,6.388Q42.4,21.68,40,21.679q-2.373,0-4.709.124c1.554-2.3,3.147-4.444,4.748-6.385ZM25.876,30.849q-1.186,2.312-2.258,4.65c-1-2.653-1.847-5.261-2.542-7.78a69.322,69.322,0,0,1,7.253-1.4q-1.26,2.209-2.452,4.53ZM28.4,53.8a65.38,65.38,0,0,1-7.373-1.332c.707-2.564,1.577-5.228,2.593-7.938q1.074,2.332,2.268,4.652h0Q27.1,51.546,28.4,53.8ZM40.133,64.7c-1.62-1.964-3.235-4.137-4.813-6.474q2.3.1,4.681.1,2.446,0,4.829-.121c-1.558,2.379-3.131,4.556-4.7,6.493ZM56.445,44.395c1.069,2.739,1.971,5.39,2.686,7.91a65.338,65.338,0,0,1-7.463,1.43q1.246-2.219,2.456-4.575,1.222-2.382,2.32-4.764ZM51.164,47.24C49.913,49.677,48.63,52,47.326,54.2c-2.374.191-4.826.289-7.326.289s-4.911-.087-7.243-.257c-1.356-2.225-2.668-4.558-3.91-6.971h0c-1.239-2.406-2.38-4.832-3.413-7.245,1.033-2.418,2.171-4.847,3.4-7.249h0c1.235-2.408,2.536-4.73,3.879-6.941,2.379-.2,4.819-.308,7.285-.308h0c2.477,0,4.92.106,7.3.31,1.323,2.195,2.614,4.509,3.855,6.918,1.254,2.435,2.407,4.848,3.449,7.214-1.039,2.407-2.189,4.844-3.438,7.278Zm7.05-42.894c2.679,1.736,3.721,8.739,2.038,17.922q-.161.879-.36,1.788a73.565,73.565,0,0,0-10.7-1.9,89.248,89.248,0,0,0-6.763-9.486q.922-1,1.84-1.9C50.179,5,55.7,2.716,58.214,4.346ZM40,31.9c3.945,0,7.144,3.595,7.144,8.029s-3.2,8.029-7.144,8.029-7.144-3.595-7.144-8.029S36.055,31.9,40,31.9Z"/></svg>