<svg xmlns="http://www.w3.org/2000/svg" width="80" height="72" viewBox="0 0 80 72"><defs><style>.a{fill:#c44d4d;}</style></defs><path class="a" d="M173.534,112.921s3.532-.775,3.532-12.457S172.787,87.7,172.787,87.7h-7.709v36.853h3.875v-8.89l3.35,8.89h5.732Zm-1.493-7.546h-3.088V96.95h3.108s.868.827.868,4.187S172.041,105.375,172.041,105.375Zm14.591-17.419H182.7c-2.805,0-3.754,6.513-3.754,9.614v26.981h3.935V118.09h3.693v6.461h3.814V97.57C190.386,89.714,187.6,87.956,186.632,87.956Zm-.061,19.693h-3.713V98.707s0-2.016,1.231-2.016h1.352c1.09,0,1.11,2.016,1.11,2.016v8.942Zm5.61-19.693h4.1v36.594h-4.1Zm9.849,27.136V87.956h-4.077v36.594h9.586v-9.459Zm6.862.1v9.355h6.6c1.352,0,3.673-2.533,3.754-9.614v-3.618c0-6.047-1.937-9.614-3.754-9.614H212.2V97.363h6.519V87.956h-6.256c-1.615,0-3.774,3.411-3.774,9.769v3.256c0,6.357,2.139,9.614,3.774,9.614,4.541.052-1.09,0,3.108,0v4.548Z" transform="translate(-139.246 -52.551)"/><path class="a" d="M1.413,71.948H17.356S14.309,36.336,24.4,21.915c2.2-2.739,9.2-12.973,20.666,8.735.363-.775.706-1.4.706-1.4S35.277,2.429,23.592,5.427c-5.873,1.344-13.1,15.041-17.336,33.131A197.765,197.765,0,0,0,1.413,71.948ZM34.632,8.322l.081-3.463A8.478,8.478,0,0,0,32.755,3.05l-.081,3.411C33.34,7.029,33.986,7.65,34.632,8.322ZM32.714,19.279l-.081,3.256a4.976,4.976,0,0,1,2,.62l.081-3.2A6.414,6.414,0,0,0,32.714,19.279ZM25.247,3.153h.2L25.045,0a6.521,6.521,0,0,0-1.937.31l.383,3.05A6.794,6.794,0,0,1,25.247,3.153Zm.969,19.021.464,3.566a11.768,11.768,0,0,1,1.756-1.809l-.444-3.411A12.167,12.167,0,0,0,26.216,22.174ZM17.053,8.58l-.908-3.566c-.5.672-1.029,1.4-1.574,2.223l.928,3.618C16.024,10.027,16.529,9.252,17.053,8.58Zm4.137,23.259.969,3.721c.343-1.292.747-2.481,1.191-3.67l-.908-3.515A34.775,34.775,0,0,0,21.191,31.839ZM18.264,48.482,19.9,51.79q.121-3.024.424-6.047L18.87,42.8C18.607,44.709,18.426,46.622,18.264,48.482ZM9.425,23.931l-1.433-3.2C7.467,22.019,6.963,23.311,6.5,24.6l1.554,3.411C8.476,26.619,8.94,25.223,9.425,23.931ZM3.33,47.035,1.009,44.864C.626,47.087.2,49.671,0,51.067l2.321,2.171C2.583,51.48,3.007,48.948,3.33,47.035ZM17.962,61.611c.04,2.739.141,4.962.242,6.513l2.422,2.223c-.182-2.016-.363-4.29-.484-6.719Z"/></svg>